# xmcd CD database file
#
# Track frame offsets:
#	150
#	19967
#	40500
#	60657
#	79542
#	100810
#	123470
#	144730
#	161917
#	180652
#
# Disc length: 2678 seconds
#
# Revision: 2
# Processed by: cddbd v1.4PL0 Copyright (c) Steve Scherf et al.
# Submitted via: CDex 1.50beta8
#
DISCID=800a740a
DTITLE=Black Uhuru - Reggae Greats
DYEAR=1900
DGENRE=Reggae
TTITLE0=Happiness
TTITLE1=World In Africa
TTITLE2=Sponji Reggae
TTITLE3=Youth Of Eglintgton
TTITLE4=Darkness
TTITLE5=What Is Life
TTITLE6=Bull In The Pen
TTITLE7=Elements
TTITLE8=Push Push
TTITLE9=Right Stuff
EXTD=
EXTT0=
EXTT1=
EXTT2=
EXTT3=
EXTT4=
EXTT5=
EXTT6=
EXTT7=
EXTT8=
EXTT9=
PLAYORDER=
